<?xml version="1.0" encoding="UTF-8"?>
<svg width="16" height="16" version="1.1" viewBox="0 0 16 16" xmlns="http://www.w3.org/2000/svg">
 <path d="m12.072 1.017c-1.299 0.043038-2.5803 0.93648-2.795 2.7055-0.20013 2.0248 1.8854 2.8323 2.8685 4.2013 0.97271-1.383 3.0435-2.1561 2.8701-4.1868-0.15778-1.8476-1.5609-2.7658-2.9437-2.72zm0.08155 1.6307a1.3858 1.3924 0 0 1 1.3863 1.3929 1.3858 1.3924 0 0 1-1.3863 1.3929 1.3858 1.3924 0 0 1-1.3863-1.3929 1.3858 1.3924 0 0 1 1.3863-1.3929z" fill="#80cc28"/>
 <g fill="none">
  <path d="m12.072 1.017c-1.299 0.043038-2.5803 0.93648-2.795 2.7055-0.20013 2.0248 1.8854 2.8323 2.8685 4.2013 0.97271-1.383 3.0435-2.1561 2.8701-4.1868-0.15778-1.8476-1.5609-2.7658-2.9437-2.72zm0.08155 1.6307a1.3858 1.3924 0 0 1 1.3863 1.3929 1.3858 1.3924 0 0 1-1.3863 1.3929 1.3858 1.3924 0 0 1-1.3863-1.3929 1.3858 1.3924 0 0 1 1.3863-1.3929z" stroke-width="0"/>
  <g stroke="#80cc28">
   <path d="m8.0266 3.3497-2.5264-0.84972-5.0002 1.3419v11.517l4.9998-1.017 4.7535 1.0165 5.2467-0.858v-7.5" stroke-linecap="round"/>
   <path d="m5.5 14.341v-11.516"/>
   <path d="m10.5 15.575v-7.5749"/>
  </g>
 </g>
 <path d="m12 12a4.0117 4.0117 0 0 0-4-4 3.999 3.999 0 0 0-3.8752 3.0246c-1.1997 0.19995-2.1253 1.2251-2.1253 2.4755a2.5067 2.5067 0 0 0 2.5009 2.4999h7.4996c1.1002 0 1.9995-0.90027 1.9995-1.9995 0-1.1002-0.89929-2.0005-1.9995-2.0005z" fill="#4c6dac" stroke-width=".37663"/>
 <style type="text/css"/>
</svg>
