<?xml version="1.0" encoding="UTF-8"?>
<!-- Created with Inkscape (http://www.inkscape.org/) -->
<svg width="24" height="24" version="1.1" viewBox="0 0 6.35 6.35" xml:space="preserve" xmlns="http://www.w3.org/2000/svg"><g stroke-dashoffset="19.999" stroke-linecap="round" stroke-linejoin="round"><text x="64.912132" y="79.058365" fill="#52524f" font-family="'Fira Sans'" font-size="16.933px" font-style="italic" letter-spacing="-.26458px" stop-color="#000000" style="-inkscape-stroke:none;line-height:normal;paint-order:stroke fill markers;text-decoration-color:#000000" xml:space="preserve"><tspan x="64.912132" y="79.058365"/></text><circle cx="3.175" cy="2.3812" r="2.1167" fill="#c4a000" stop-color="#000000" stroke-width="1.0394" style="-inkscape-stroke:none;paint-order:stroke fill markers"/><circle cx="3.175" cy="2.3812" r="1.8521" fill="#f1db1e" stop-color="#000000" stroke-width=".90945" style="-inkscape-stroke:none;paint-order:stroke fill markers"/><path d="m2.4471 2.2025c0.094047-0.074434 0.2427-0.27019 0.49729-0.00889 0.20949 0.21968 0.37582 0.07317 0.45059 2.335e-4 0.29464-0.31896 0.43252-0.023882 0.51611 0.023029" fill="none" stop-color="#000000" stroke="#fff" stroke-width=".26458" style="paint-order:stroke fill markers"/><g><path d="m2.9104 4.101-0.52917-1.9844" fill="#aec7e2" stop-color="#000000" stroke="#2e4e72" stroke-width=".26458" style="paint-order:stroke fill markers"/><path d="m3.4396 4.101 0.52917-1.9844" fill="#aec7e2" stop-color="#000000" stroke="#2e4e72" stroke-width=".26458" style="paint-order:stroke fill markers"/><g stroke="#888a85"><path d="m2.3812 4.2333v0.8599c7.607e-4 0.24902 0.25949 0.52634 0.52917 0.52917 0.00456 0.25324 0.52306 0.26092 0.52917 0 0.25681-0.0083997 0.53728-0.272 0.52917-0.52917v-0.8599z" fill="#e6e6e6" stop-color="#000000" stroke-width=".52917" style="paint-order:stroke fill markers"/><path d="m2.249 4.6302h1.8521" fill="#aec7e2" stop-color="#000000" stroke-width=".26458" style="paint-order:stroke fill markers"/><path d="m2.3151 5.1594h1.7198" fill="#aec7e2" stop-color="#000000" stroke-width=".26458" style="paint-order:stroke fill markers"/></g></g></g></svg>
