<?xml version="1.0" encoding="UTF-8"?>
<svg width="24" height="24" version="1.1" viewBox="0 0 24 24" xmlns="http://www.w3.org/2000/svg" xmlns:cc="http://creativecommons.org/ns#" xmlns:dc="http://purl.org/dc/elements/1.1/" xmlns:rdf="http://www.w3.org/1999/02/22-rdf-syntax-ns#">
 <metadata>
  <rdf:RDF>
   <cc:Work rdf:about="">
    <dc:format>image/svg+xml</dc:format>
    <dc:type rdf:resource="http://purl.org/dc/dcmitype/StillImage"/>
    <dc:title/>
   </cc:Work>
  </rdf:RDF>
 </metadata>
 <path d="m19 19h-14v-14h7v-2h-7c-1.11 0-2 0.9-2 2v14c0 1.1 0.89 2 2 2h14c1.1 0 2-0.9 2-2v-7h-2zm-5-16v2h3.59l-9.83 9.83 1.41 1.41 9.83-9.83v3.59h2v-7z" fill="none" stroke="#fff" stroke-opacity=".5" stroke-width="2"/>
 <path d="M0 0h24v24H0z" fill="none"/>
 <path d="M19 19H5V5h7V3H5c-1.11 0-2 .9-2 2v14c0 1.1.89 2 2 2h14c1.1 0 2-.9 2-2v-7h-2v7zM14 3v2h3.59l-9.83 9.83 1.41 1.41L19 6.41V10h2V3h-7z"/>
</svg>
